<mxfile host="app.diagrams.net" modified="2023-12-13T15:34:49.843Z" agent="Mozilla/5.0 (Windows NT 10.0; Win64; x64) AppleWebKit/537.36 (KHTML, like Gecko) Chrome/120.0.0.0 Safari/537.36" etag="JtZokn9FVoAdX1xDLWAe" version="22.1.8" type="github">
  <diagram name="Page-1" id="2YBvvXClWsGukQMizWep">
    <mxGraphModel dx="591" dy="579" grid="1" gridSize="10" guides="1" tooltips="1" connect="1" arrows="1" fold="1" page="1" pageScale="1" pageWidth="850" pageHeight="1100" math="0" shadow="0">
      <root>
        <mxCell id="0" />
        <mxCell id="1" parent="0" />
        <mxCell id="8Wsv0yT4iBpVG4CSka9u-1" value="Абитуриент&lt;br&gt;" style="shape=umlActor;verticalLabelPosition=bottom;verticalAlign=top;html=1;outlineConnect=0;" vertex="1" parent="1">
          <mxGeometry x="30" y="100" width="30" height="60" as="geometry" />
        </mxCell>
        <mxCell id="8Wsv0yT4iBpVG4CSka9u-2" value="Сотрудник приемной&lt;br&gt;комиссии" style="shape=umlActor;verticalLabelPosition=bottom;verticalAlign=top;html=1;outlineConnect=0;" vertex="1" parent="1">
          <mxGeometry x="550" y="100" width="30" height="60" as="geometry" />
        </mxCell>
        <mxCell id="8Wsv0yT4iBpVG4CSka9u-3" value="Графический интерфейс" style="html=1;whiteSpace=wrap;" vertex="1" parent="1">
          <mxGeometry x="190" y="120" width="80" height="40" as="geometry" />
        </mxCell>
        <mxCell id="8Wsv0yT4iBpVG4CSka9u-4" value="Система" style="html=1;whiteSpace=wrap;" vertex="1" parent="1">
          <mxGeometry x="360" y="120" width="90" height="40" as="geometry" />
        </mxCell>
        <mxCell id="8Wsv0yT4iBpVG4CSka9u-7" value="" style="endArrow=none;dashed=1;html=1;dashPattern=1 3;strokeWidth=2;rounded=0;edgeStyle=orthogonalEdgeStyle;" edge="1" parent="1">
          <mxGeometry width="50" height="50" relative="1" as="geometry">
            <mxPoint x="40" y="680" as="sourcePoint" />
            <mxPoint x="40" y="190" as="targetPoint" />
            <Array as="points">
              <mxPoint x="40" y="500" />
              <mxPoint x="40" y="500" />
            </Array>
          </mxGeometry>
        </mxCell>
        <mxCell id="8Wsv0yT4iBpVG4CSka9u-8" value="" style="endArrow=none;dashed=1;html=1;dashPattern=1 3;strokeWidth=2;rounded=0;edgeStyle=orthogonalEdgeStyle;" edge="1" parent="1">
          <mxGeometry width="50" height="50" relative="1" as="geometry">
            <mxPoint x="604" y="680" as="sourcePoint" />
            <mxPoint x="604.33" y="200" as="targetPoint" />
            <Array as="points">
              <mxPoint x="604.33" y="510" />
              <mxPoint x="604.33" y="510" />
            </Array>
          </mxGeometry>
        </mxCell>
        <mxCell id="8Wsv0yT4iBpVG4CSka9u-12" value="" style="html=1;points=[[0,0,0,0,5],[0,1,0,0,-5],[1,0,0,0,5],[1,1,0,0,-5]];perimeter=orthogonalPerimeter;outlineConnect=0;targetShapes=umlLifeline;portConstraint=eastwest;newEdgeStyle={&quot;curved&quot;:0,&quot;rounded&quot;:0};" vertex="1" parent="1">
          <mxGeometry x="225" y="190" width="10" height="80" as="geometry" />
        </mxCell>
        <mxCell id="8Wsv0yT4iBpVG4CSka9u-13" value="авторизация" style="html=1;verticalAlign=bottom;endArrow=block;curved=0;rounded=0;entryX=0;entryY=0;entryDx=0;entryDy=5;edgeStyle=orthogonalEdgeStyle;" edge="1" target="8Wsv0yT4iBpVG4CSka9u-12" parent="1">
          <mxGeometry x="-0.0033" relative="1" as="geometry">
            <mxPoint x="40" y="200" as="sourcePoint" />
            <Array as="points">
              <mxPoint x="108" y="201" />
              <mxPoint x="175" y="201" />
            </Array>
            <mxPoint as="offset" />
          </mxGeometry>
        </mxCell>
        <mxCell id="8Wsv0yT4iBpVG4CSka9u-15" value="" style="html=1;points=[[0,0,0,0,5],[0,1,0,0,-5],[1,0,0,0,5],[1,1,0,0,-5]];perimeter=orthogonalPerimeter;outlineConnect=0;targetShapes=umlLifeline;portConstraint=eastwest;newEdgeStyle={&quot;curved&quot;:0,&quot;rounded&quot;:0};" vertex="1" parent="1">
          <mxGeometry x="225" y="290" width="10" height="80" as="geometry" />
        </mxCell>
        <mxCell id="8Wsv0yT4iBpVG4CSka9u-16" value="выбор опции подать документы" style="html=1;verticalAlign=bottom;endArrow=block;curved=0;rounded=0;entryX=0;entryY=0;entryDx=0;entryDy=5;edgeStyle=orthogonalEdgeStyle;" edge="1" target="8Wsv0yT4iBpVG4CSka9u-15" parent="1">
          <mxGeometry x="0.0084" relative="1" as="geometry">
            <mxPoint x="40" y="295" as="sourcePoint" />
            <mxPoint as="offset" />
          </mxGeometry>
        </mxCell>
        <mxCell id="8Wsv0yT4iBpVG4CSka9u-17" value="отображение формы подачи&lt;br&gt;документов" style="html=1;verticalAlign=bottom;endArrow=open;dashed=1;endSize=8;curved=0;rounded=0;exitX=0;exitY=1;exitDx=0;exitDy=-5;edgeStyle=orthogonalEdgeStyle;" edge="1" source="8Wsv0yT4iBpVG4CSka9u-15" parent="1">
          <mxGeometry relative="1" as="geometry">
            <mxPoint x="40" y="365" as="targetPoint" />
          </mxGeometry>
        </mxCell>
        <mxCell id="8Wsv0yT4iBpVG4CSka9u-18" value="" style="html=1;points=[[0,0,0,0,5],[0,1,0,0,-5],[1,0,0,0,5],[1,1,0,0,-5]];perimeter=orthogonalPerimeter;outlineConnect=0;targetShapes=umlLifeline;portConstraint=eastwest;newEdgeStyle={&quot;curved&quot;:0,&quot;rounded&quot;:0};" vertex="1" parent="1">
          <mxGeometry x="225" y="410" width="10" height="80" as="geometry" />
        </mxCell>
        <mxCell id="8Wsv0yT4iBpVG4CSka9u-19" value="нажатие кнопки отправить заявление" style="html=1;verticalAlign=bottom;endArrow=block;curved=0;rounded=0;entryX=0;entryY=0;entryDx=0;entryDy=5;edgeStyle=orthogonalEdgeStyle;" edge="1" target="8Wsv0yT4iBpVG4CSka9u-18" parent="1">
          <mxGeometry relative="1" as="geometry">
            <mxPoint x="40" y="415" as="sourcePoint" />
          </mxGeometry>
        </mxCell>
        <mxCell id="8Wsv0yT4iBpVG4CSka9u-21" value="" style="endArrow=none;dashed=1;html=1;dashPattern=1 3;strokeWidth=2;rounded=0;edgeStyle=orthogonalEdgeStyle;" edge="1" parent="1">
          <mxGeometry width="50" height="50" relative="1" as="geometry">
            <mxPoint x="240" y="670" as="sourcePoint" />
            <mxPoint x="235" y="160" as="targetPoint" />
            <Array as="points">
              <mxPoint x="235" y="470" />
              <mxPoint x="235" y="470" />
            </Array>
          </mxGeometry>
        </mxCell>
        <mxCell id="8Wsv0yT4iBpVG4CSka9u-22" value="" style="endArrow=none;dashed=1;html=1;dashPattern=1 3;strokeWidth=2;rounded=0;edgeStyle=orthogonalEdgeStyle;" edge="1" parent="1">
          <mxGeometry width="50" height="50" relative="1" as="geometry">
            <mxPoint x="410" y="670" as="sourcePoint" />
            <mxPoint x="410" y="160" as="targetPoint" />
            <Array as="points">
              <mxPoint x="410" y="470" />
              <mxPoint x="410" y="470" />
            </Array>
          </mxGeometry>
        </mxCell>
        <mxCell id="8Wsv0yT4iBpVG4CSka9u-23" value="" style="html=1;points=[[0,0,0,0,5],[0,1,0,0,-5],[1,0,0,0,5],[1,1,0,0,-5]];perimeter=orthogonalPerimeter;outlineConnect=0;targetShapes=umlLifeline;portConstraint=eastwest;newEdgeStyle={&quot;curved&quot;:0,&quot;rounded&quot;:0};" vertex="1" parent="1">
          <mxGeometry x="400" y="470" width="10" height="80" as="geometry" />
        </mxCell>
        <mxCell id="8Wsv0yT4iBpVG4CSka9u-24" value="передача данных на сервер" style="html=1;verticalAlign=bottom;endArrow=block;curved=0;rounded=0;entryX=0;entryY=0;entryDx=0;entryDy=5;edgeStyle=orthogonalEdgeStyle;" edge="1" target="8Wsv0yT4iBpVG4CSka9u-23" parent="1">
          <mxGeometry relative="1" as="geometry">
            <mxPoint x="240" y="480" as="sourcePoint" />
            <Array as="points">
              <mxPoint x="240" y="475" />
            </Array>
          </mxGeometry>
        </mxCell>
        <mxCell id="8Wsv0yT4iBpVG4CSka9u-26" value="" style="html=1;points=[[0,0,0,0,5],[0,1,0,0,-5],[1,0,0,0,5],[1,1,0,0,-5]];perimeter=orthogonalPerimeter;outlineConnect=0;targetShapes=umlLifeline;portConstraint=eastwest;newEdgeStyle={&quot;curved&quot;:0,&quot;rounded&quot;:0};" vertex="1" parent="1">
          <mxGeometry x="600" y="540" width="10" height="80" as="geometry" />
        </mxCell>
        <mxCell id="8Wsv0yT4iBpVG4CSka9u-27" value="отправка заявления в приемную&lt;br&gt;комиссию" style="html=1;verticalAlign=bottom;endArrow=block;curved=0;rounded=0;entryX=0;entryY=0;entryDx=0;entryDy=5;edgeStyle=orthogonalEdgeStyle;exitX=1;exitY=1;exitDx=0;exitDy=-5;exitPerimeter=0;" edge="1" target="8Wsv0yT4iBpVG4CSka9u-26" parent="1" source="8Wsv0yT4iBpVG4CSka9u-23">
          <mxGeometry relative="1" as="geometry">
            <mxPoint x="490" y="545" as="sourcePoint" />
          </mxGeometry>
        </mxCell>
        <mxCell id="8Wsv0yT4iBpVG4CSka9u-28" value="внесение абитуриента в&lt;br&gt;ранжированный список" style="html=1;verticalAlign=bottom;endArrow=open;dashed=1;endSize=8;curved=0;rounded=0;exitX=0;exitY=1;exitDx=0;exitDy=-5;edgeStyle=orthogonalEdgeStyle;" edge="1" source="8Wsv0yT4iBpVG4CSka9u-26" parent="1">
          <mxGeometry relative="1" as="geometry">
            <mxPoint x="410" y="615" as="targetPoint" />
          </mxGeometry>
        </mxCell>
        <mxCell id="8Wsv0yT4iBpVG4CSka9u-29" value="сообщение об успешной отправке" style="html=1;verticalAlign=bottom;endArrow=open;dashed=1;endSize=8;curved=0;rounded=0;edgeStyle=orthogonalEdgeStyle;" edge="1" parent="1">
          <mxGeometry relative="1" as="geometry">
            <mxPoint x="400" y="540" as="sourcePoint" />
            <mxPoint x="230" y="540" as="targetPoint" />
          </mxGeometry>
        </mxCell>
        <mxCell id="8Wsv0yT4iBpVG4CSka9u-30" value="вывод сообщения о внесении в&amp;nbsp;&lt;br&gt;ранжированный список" style="html=1;verticalAlign=bottom;endArrow=open;dashed=1;endSize=8;curved=0;rounded=0;edgeStyle=orthogonalEdgeStyle;" edge="1" parent="1">
          <mxGeometry relative="1" as="geometry">
            <mxPoint x="230" y="480" as="sourcePoint" />
            <mxPoint x="40" y="480" as="targetPoint" />
          </mxGeometry>
        </mxCell>
        <mxCell id="8Wsv0yT4iBpVG4CSka9u-31" value="Диаграмма взаимодействия основного прецедента" style="text;strokeColor=none;fillColor=none;html=1;fontSize=24;fontStyle=1;verticalAlign=middle;align=center;" vertex="1" parent="1">
          <mxGeometry x="290" y="30" width="100" height="40" as="geometry" />
        </mxCell>
      </root>
    </mxGraphModel>
  </diagram>
</mxfile>
